<?xml version="1.0" encoding="UTF-8"?>
<svg version="1.1" xmlns="http://www.w3.org/2000/svg" width="527" height="169">
<path d="M0 0 C173.91 0 347.82 0 527 0 C527 55.77 527 111.54 527 169 C353.09 169 179.18 169 0 169 C0 113.23 0 57.46 0 0 Z " fill="#E4D0D1" transform="translate(0,0)"/>
<path d="M0 0 C5.94 0 11.88 0 18 0 C18 9.9 18 19.8 18 30 C19.65 29.34 21.3 28.68 23 28 C32.77590038 26.89812918 40.42943944 28.58170147 48.75 33.6875 C55.59298284 40.7205657 60.34310597 49.30458468 60.33988953 59.24267578 C60.32440567 59.96696777 60.30892181 60.69125977 60.29296875 61.4375 C60.28872391 62.20304199 60.28447906 62.96858398 60.28010559 63.75732422 C60.26348328 66.17192687 60.22586506 68.58565511 60.1875 71 C60.17243178 72.64972742 60.15874714 74.29946809 60.14648438 75.94921875 C60.11620153 79.96674325 60.05745497 83.98240779 60 88 C53.73 88 47.46 88 41 88 C40.99742187 85.53144531 40.99484375 83.06289062 40.9921875 80.51953125 C40.9693503 78.11987745 40.93633595 75.72056358 40.90234375 73.32104492 C40.88421305 71.65771543 40.87660996 69.99423563 40.87988281 68.33081055 C40.8827487 65.93420827 40.8473523 63.54070338 40.8046875 61.14453125 C40.81378143 60.4047554 40.82287537 59.66497955 40.83224487 58.90278625 C40.75148962 56.01245077 40.56692403 53.69179906 38.6945343 51.40698242 C34.7698569 48.02726883 32.12366003 47.23004701 27.12109375 47.5 C23.69469341 48.30769658 22.07712151 50.27377802 20 53 C18.50016915 55.9996617 18.76097945 59.11946961 18.68359375 62.4140625 C18.66281265 63.14370209 18.64203156 63.87334167 18.62062073 64.62509155 C18.55518083 66.95829763 18.49626632 69.29161721 18.4375 71.625 C18.39430947 73.20574095 18.35069501 74.78647039 18.30664062 76.3671875 C18.19870631 80.24467697 18.09959245 84.1222513 18 88 C12.06 88 6.12 88 0 88 C0 58.96 0 29.92 0 0 Z " fill="#1F1D1D" transform="translate(216,27)"/>
<path d="M0 0 C6.27 0 12.54 0 19 0 C21.7677236 6.62276718 24.03231027 13.20522541 25.97265625 20.1171875 C26.97862174 22.94001082 28.16412529 24.67308109 30 27 C30.40109985 25.82642944 30.40109985 25.82642944 30.81030273 24.62915039 C32.01635209 21.10589254 33.22686365 17.58418419 34.4375 14.0625 C34.85837891 12.83080078 35.27925781 11.59910156 35.71289062 10.33007812 C36.31713867 8.5753418 36.31713867 8.5753418 36.93359375 6.78515625 C37.30540771 5.70113525 37.67722168 4.61711426 38.06030273 3.50024414 C39 1 39 1 40 0 C41.41570123 -0.08651611 42.835595 -0.10704904 44.25390625 -0.09765625 C45.53491211 -0.09282227 45.53491211 -0.09282227 46.84179688 -0.08789062 C47.73962891 -0.07951172 48.63746094 -0.07113281 49.5625 -0.0625 C50.46419922 -0.05798828 51.36589844 -0.05347656 52.29492188 -0.04882812 C54.53001634 -0.03700223 56.76496493 -0.01968245 59 0 C56.44080324 8.90443128 53.46364594 17.66485767 50.4921875 26.4375 C49.96067789 28.01021774 49.42927717 29.58297229 48.89797974 31.15576172 C47.7913148 34.4305465 46.68345599 37.70492415 45.57470703 40.97900391 C44.15239093 45.17930033 42.73293407 49.38055647 41.31432915 53.58210754 C40.22077746 56.82000723 39.12582394 60.05743145 38.03042984 63.29470825 C37.50611166 64.84475736 36.98221192 66.39494808 36.45873642 67.94528198 C35.73025238 70.10202382 34.9999069 72.25812618 34.26904297 74.4140625 C33.85395477 75.6407666 33.43886658 76.8674707 33.01119995 78.13134766 C32 81 32 81 31 83 C24.73 83 18.46 83 12 83 C13.4398517 76.88063026 14.88849032 71.11368926 17.3125 65.3125 C19.36517389 59.72510581 18.98370855 56.52310555 17 51 C16.63777344 49.93910156 16.27554688 48.87820312 15.90234375 47.78515625 C14.95463854 45.0442512 13.98034687 42.31391629 12.99609375 39.5859375 C10.56941436 32.83355052 8.22610693 26.05240808 5.88693237 19.26931763 C5.37907318 17.79838312 4.86989765 16.32790245 4.35940552 14.85787964 C3.63510799 12.77213917 2.91474106 10.68508034 2.1953125 8.59765625 C1.77266113 7.37570557 1.35000977 6.15375488 0.91455078 4.89477539 C0 2 0 2 0 0 Z " fill="#1D1B1B" transform="translate(55,56)"/>
<path d="M0 0 C3.58475367 2.48804821 6.15289877 5.16525293 8.56640625 8.78125 C9.14390625 9.626875 9.72140625 10.4725 10.31640625 11.34375 C13.19970787 16.96618816 13.84703399 21.98987071 13.76171875 28.2421875 C13.75888885 29.03275543 13.75605896 29.82332336 13.75314331 30.6378479 C13.7420158 33.14414084 13.71692551 35.65006645 13.69140625 38.15625 C13.68136683 39.86327606 13.67224266 41.57030777 13.6640625 43.27734375 C13.64380875 47.44556528 13.60464707 51.61300012 13.56640625 55.78125 C7.62640625 55.78125 1.68640625 55.78125 -4.43359375 55.78125 C-4.459375 53.46867187 -4.48515625 51.15609375 -4.51171875 48.7734375 C-4.55019531 46.5194105 -4.59533706 44.26560794 -4.64111328 42.01171875 C-4.66923788 40.4522585 -4.69049464 38.89265796 -4.70458984 37.33300781 C-4.72613917 35.08325827 -4.77284432 32.83518026 -4.82421875 30.5859375 C-4.82544739 29.8950705 -4.82667603 29.20420349 -4.82794189 28.49240112 C-4.97690286 23.50479541 -6.33972846 20.64749171 -9.43359375 16.78125 C-12.64144393 14.42882653 -15.53008627 14.3128291 -19.43359375 14.78125 C-23.39839412 16.91614251 -25.88068474 18.53538901 -27.43359375 22.78125 C-27.66864486 25.34917437 -27.80530903 27.82003418 -27.84765625 30.390625 C-27.8670224 31.11743469 -27.88638855 31.84424438 -27.90634155 32.59307861 C-27.96593646 34.90568448 -28.01244133 37.21834067 -28.05859375 39.53125 C-28.09679211 41.10288582 -28.13584492 42.67450113 -28.17578125 44.24609375 C-28.27322437 48.09103671 -28.35294905 51.93577137 -28.43359375 55.78125 C-34.37359375 55.78125 -40.31359375 55.78125 -46.43359375 55.78125 C-46.57249183 50.72947543 -46.69154188 45.68449816 -46.76318359 40.63232422 C-46.79308597 38.91952903 -46.83382461 37.20688331 -46.88623047 35.49462891 C-47.23917417 23.6537138 -46.78138768 13.89313023 -38.45605469 4.56567383 C-27.55738488 -6.03283304 -13.19474084 -7.44949416 0 0 Z " fill="#1B1A1A" transform="translate(407.43359375,59.21875)"/>
<path d="M0 0 C1.01707031 0.61875 1.01707031 0.61875 2.0546875 1.25 C2.75335938 1.6625 3.45203125 2.075 4.171875 2.5 C10.61517416 6.77932322 14.62134535 12.94997355 17.0546875 20.25 C17.0546875 22.56 17.0546875 24.87 17.0546875 27.25 C11.1146875 27.25 5.1746875 27.25 -0.9453125 27.25 C-2.2653125 24.61 -3.5853125 21.97 -4.9453125 19.25 C-7.89616935 16.69790759 -9.55687337 16.29161848 -13.4453125 15.875 C-17.17476915 16.27458464 -18.99973588 16.97769804 -21.9453125 19.25 C-24.90798094 23.69400266 -24.71477144 28.03901077 -23.9453125 33.25 C-21.7437151 36.14683868 -20.15936788 37.64297231 -16.9453125 39.25 C-12.03282896 39.38511743 -8.80756864 38.98383501 -5.0078125 35.75 C-4.3271875 34.925 -3.6465625 34.1 -2.9453125 33.25 C-2.2853125 32.92 -1.6253125 32.59 -0.9453125 32.25 C-0.9453125 39.84 -0.9453125 47.43 -0.9453125 55.25 C-8.51908349 59.0368855 -15.70247803 59.99530289 -23.90234375 57.265625 C-32.56512042 53.05761954 -38.78755872 47.46021264 -42.7578125 38.625 C-45.13575497 31.58683695 -45.15527868 23.34476488 -42.3828125 16.4375 C-38.21381897 8.4371427 -31.58752569 1.46937472 -23.125 -1.859375 C-15.37952616 -4.0288689 -7.16472263 -3.77919435 0 0 Z " fill="#1D1B1B" transform="translate(330.9453125,57.75)"/>
<path d="M0 0 C1.22517308 5.66642551 1.09228867 11.23708518 1 17 C0.37351562 17.15855469 -0.25296875 17.31710938 -0.8984375 17.48046875 C-5.89826084 18.77141616 -5.89826084 18.77141616 -9.5625 22.125 C-10.40500863 27.6614853 -11.24048719 34.13926922 -8 39 C-4.0061627 40.90614962 -0.38754798 41.5484435 4 41 C7.00685874 39.38092222 9.2581079 37.94422632 11.375 35.25 C12.38299004 31.62123586 12.39206699 28.75264124 12 25 C10.35 22.69 8.7 20.38 7 18 C14.26 18 21.52 18 29 18 C32.24556727 24.49113454 31.95339426 31.82105032 30.34765625 38.859375 C27.37792964 47.06754641 22.53710791 52.96448576 14.75 56.9375 C7.22760343 60.3833183 -0.41851546 61.40595817 -8.57421875 59.3515625 C-18.56540508 55.27139217 -24.92287921 47.74035982 -29.3125 38.125 C-31.33770781 28.91950994 -29.74225027 21.07824123 -25.3125 12.875 C-18.3063118 4.16460386 -11.32997582 -0.67979855 0 0 Z " fill="#1C1B1B" transform="translate(462,56)"/>
<path d="M0 0 C2.18728546 1.22471602 4.12020278 2.61583884 6.0859375 4.16796875 C4.7603794 7.7907319 3.14246795 10.80302223 0.9609375 13.98046875 C0.42210937 14.77066406 -0.11671875 15.56085938 -0.671875 16.375 C-1.08179688 16.96667969 -1.49171875 17.55835937 -1.9140625 18.16796875 C-2.749375 17.6265625 -2.749375 17.6265625 -3.6015625 17.07421875 C-9.05502732 13.75792258 -12.54367693 12.58884279 -18.9140625 13.16796875 C-18.72381536 15.12301528 -18.72381536 15.12301528 -17.9140625 17.16796875 C-16.13123085 18.3398147 -16.13123085 18.3398147 -13.87109375 19.0625 C-13.04416016 19.37896484 -12.21722656 19.69542969 -11.36523438 20.02148438 C-9.62712955 20.65317162 -7.88757244 21.28087927 -6.14648438 21.90429688 C-0.23881996 24.17506966 3.64987575 26.75831755 7.0859375 32.16796875 C8.67666603 36.94015433 9.11104371 41.64938884 7.1796875 46.39453125 C3.89098746 52.02326785 0.03852631 54.98693323 -6.0390625 57.41796875 C-15.59648779 59.267793 -25.57002744 58.99489116 -34.08984375 53.85546875 C-35.74378901 52.68875787 -37.33690114 51.43655506 -38.9140625 50.16796875 C-38.28017015 46.66952489 -36.86228556 44.32709999 -34.8515625 41.41796875 C-34.30371094 40.61875 -33.75585938 39.81953125 -33.19140625 38.99609375 C-32.76988281 38.3928125 -32.34835938 37.78953125 -31.9140625 37.16796875 C-29.51270912 38.36604093 -27.11748878 39.57406515 -24.7265625 40.79296875 C-20.50323774 42.62001577 -16.43891193 42.44500035 -11.9140625 42.16796875 C-11.5840625 40.84796875 -11.2540625 39.52796875 -10.9140625 38.16796875 C-11.51992187 38.00941406 -12.12578125 37.85085937 -12.75 37.6875 C-22.9100237 34.85832417 -31.57804379 31.74442848 -37.01171875 22.25 C-38.88376829 17.93050907 -38.75383676 13.35528776 -37.07421875 8.98046875 C-29.52149617 -4.44659362 -13.12024091 -5.84365679 0 0 Z " fill="#1D1C1C" transform="translate(194.9140625,57.83203125)"/>
<path d="M0 0 C6.27 0 12.54 0 19 0 C19 19.47 19 38.94 19 59 C12.73 59 6.46 59 0 59 C0 39.53 0 20.06 0 0 Z " fill="#222020" transform="translate(124,56)"/>
<path d="M0 0 C12.87 0 25.74 0 39 0 C39 5.94 39 11.88 39 18 C35.78225211 18.80443697 33.27581884 19.17725163 30.015625 19.31640625 C29.08105469 19.35830078 28.14648438 19.40019531 27.18359375 19.44335938 C26.21550781 19.48267578 25.24742187 19.52199219 24.25 19.5625 C23.26644531 19.60568359 22.28289062 19.64886719 21.26953125 19.69335938 C18.84648725 19.79922052 16.4233446 19.90130171 14 20 C15.22009766 21.36125 15.22009766 21.36125 16.46484375 22.75 C19.14444194 25.97574024 19.70829837 27.88187368 19.421875 32.04296875 C18.48921118 36.36949258 16.04061812 39.07830966 12.8125 41.9375 C8.69699949 43.49224464 5.19566555 43.26934085 1 42 C-1.70552388 39.80176185 -3.44778333 38.10443333 -5 35 C-5.43032996 30.78773177 -5.42629046 27.08940896 -3.875 23.125 C-1.52057663 20.45665352 0.7063987 19.30371718 4 18 C4.99 18 5.98 18 7 18 C6.67 12.39 6.34 6.78 6 1 C4.02 1 2.04 1 0 1 C0 0.67 0 0.34 0 0 Z " fill="#7B2332" transform="translate(456,55)"/>
<path d="M0 0 C2.74335766 2.3069144 4.25563597 4.07471128 5.75 7.3125 C5.75 8.3025 5.75 9.2925 5.75 10.3125 C11.69 10.3125 17.63 10.3125 23.75 10.3125 C23.75 20.2125 23.75 30.1125 23.75 40.3125 C17.81 40.3125 11.87 40.3125 5.75 40.3125 C4.49751498 37.80752996 4.63625594 36.10396726 4.65234375 33.3046875 C4.65556641 32.31855469 4.65878906 31.33242187 4.66210938 30.31640625 C4.67048828 29.28386719 4.67886719 28.25132813 4.6875 27.1875 C4.69201172 26.14722656 4.69652344 25.10695313 4.70117188 24.03515625 C4.71298048 21.46088038 4.72944925 18.88671854 4.75 16.3125 C4.13898438 17.11042969 3.52796875 17.90835938 2.8984375 18.73046875 C-0.1353378 22.37651506 -2.56735641 23.09769444 -7.1875 23.6875 C-11.11684549 23.20635565 -13.17648237 21.75734357 -16.25 19.3125 C-19.22051564 14.85672653 -18.87737491 10.53807394 -18.25 5.3125 C-14.15188699 -1.85919777 -7.46112252 -3.87404438 0 0 Z " fill="#7C2231" transform="translate(324.25,74.6875)"/>
<path d="M0 0 C0.79075928 0.00523682 1.58151855 0.01047363 2.39624023 0.01586914 C3.67724609 0.02070312 3.67724609 0.02070312 4.98413086 0.02563477 C5.88196289 0.03401367 6.77979492 0.04239258 7.70483398 0.05102539 C8.6065332 0.05553711 9.50823242 0.06004883 10.43725586 0.06469727 C12.67235033 0.07652316 14.90729891 0.09384295 17.14233398 0.11352539 C15.05555895 7.26381569 12.76307592 14.32528951 10.34936523 21.37133789 C9.82302742 22.91493484 9.82302742 22.91493484 9.28605652 24.48971558 C8.17736573 27.7399078 7.06614388 30.98922788 5.95483398 34.23852539 C5.19750427 36.45721796 4.44034121 38.67596743 3.68334961 40.89477539 C1.83826972 46.30168433 -0.00888266 51.70788173 -1.85766602 57.11352539 C-6.81615215 54.63428232 -8.560936 46.28737258 -10.43725586 41.40087891 C-15.03987677 26.90820731 -9.35875743 14.19545134 -2.85766602 1.11352539 C-1.85766602 0.11352539 -1.85766602 0.11352539 0 0 Z " fill="#DD2C4B" transform="translate(96.857666015625,55.886474609375)"/>
<path d="M0 0 C0.96808594 0.16242188 1.93617188 0.32484375 2.93359375 0.4921875 C7.31648309 1.11626684 11.64215644 1.14712015 16.0625 1.125 C16.83916016 1.12886719 17.61582031 1.13273437 18.41601562 1.13671875 C22.7222659 1.1294262 26.75958423 0.85486782 31 0 C34.06802099 5.62470514 35.89061647 10.69403048 37 17 C35.58398286 17.48108275 34.16715563 17.95978141 32.75 18.4375 C31.96109375 18.70433594 31.1721875 18.97117188 30.359375 19.24609375 C19.26947791 22.78971981 4.52847546 22.26423773 -6 17 C-4.13236819 11.27789404 -2.14710968 5.62338249 0 0 Z " fill="#201E1E" transform="translate(447,125)"/>
<path d="M0 0 C5.94 0 11.88 0 18 0 C18.20757996 4.31048761 18.38616385 8.60351762 18.49438477 12.91503906 C18.53948228 14.37820277 18.60078644 15.84096439 18.67895508 17.30273438 C19.31461486 29.50075479 19.31461486 29.50075479 16.07739258 33.19262695 C13.6796875 34.74609375 13.6796875 34.74609375 11.28466797 35.86108398 C6.82389109 38.0847989 3.97919926 42.49760188 2.19140625 47.06640625 C1.71581229 48.68998562 1.34505055 50.34375736 1 52 C0.67 52 0.34 52 0 52 C0 34.84 0 17.68 0 0 Z " fill="#DA2C4A" transform="translate(216,27)"/>
<path d="M0 0 C5.94 0 11.88 0 18 0 C18 9.9 18 19.8 18 30 C12.06 30 6.12 30 0 30 C0 20.1 0 10.2 0 0 Z " fill="#DB2C4A" transform="translate(216,85)"/>
<path d="M0 0 C3.96963737 3.33810415 5.52828086 5.57042104 6.1875 10.75 C5.65879625 15.0551591 4.57657232 17.03962679 1.75 20.3125 C-2.30108238 22.95451025 -5.4337565 24.01486884 -10.25 23.3125 C-13.9078218 21.27256092 -15.91946174 19.80830738 -18.25 16.3125 C-18.9272783 11.22503742 -19.07467221 6.75567636 -16.5 2.25 C-11.29045309 -2.23599873 -6.38110003 -3.31326348 0 0 Z " fill="#DECBCC" transform="translate(324.25,74.6875)"/>
<path d="M0 0 C3.45658479 2.04573386 4.7785359 3.66780385 7 7 C7.4673854 11.75175157 7.4911613 14.03586856 5.3125 18.3125 C2.87844881 21.14126219 1.49050691 22.68136405 -2 24 C-6.97400857 24.29898412 -10.09129725 23.73832098 -14 20.5625 C-17.48068293 16.10287499 -17.54550173 12.53157899 -17 7 C-13.52059002 -0.78725091 -7.72229293 -0.93843384 0 0 Z " fill="#E1CDCE" transform="translate(468,74)"/>
<path d="M0 0 C6.27 0 12.54 0 19 0 C16.36 7.92 13.72 15.84 11 24 C4.73 24 -1.54 24 -8 24 C-6.08098237 15.51592204 -3.50685691 7.96151299 0 0 Z " fill="#DE2C4B" transform="translate(75,115)"/>
<path d="M0 0 C0.19665429 3.93709911 0.38075477 7.87468672 0.5625 11.8125 C0.61857422 12.93205078 0.67464844 14.05160156 0.73242188 15.20507812 C0.78076172 16.27822266 0.82910156 17.35136719 0.87890625 18.45703125 C0.9260376 19.44678955 0.97316895 20.43654785 1.02172852 21.45629883 C1 24 1 24 0 27 C-5.94 27 -11.88 27 -18 27 C-17.45173022 17.13114396 -15.81386058 11.29574519 -8.375 4.5625 C-3 0 -3 0 0 0 Z " fill="#7E2231" transform="translate(234,58)"/>
<path d="M0 0 C2.70567626 1.82339052 4.53728718 3.07457436 6 6 C6.04053539 10.19946671 5.67640997 13.87265006 3.5 17.5 C-0.19326544 19.71595926 -3.7083642 20.34424886 -8 20 C-10.92143417 18.23496686 -12.47923817 17.04152365 -14 14 C-14.42071592 10.94079426 -14.48514117 8.0532254 -14 5 C-9.54542867 -0.62682695 -6.93538616 -1.52813593 0 0 Z " fill="#DB304E" transform="translate(138,29)"/>
<path d="M0 0 C2.78479091 5.28261155 4.60569879 10.955784 6.625 16.5625 C7.04523438 17.71169922 7.46546875 18.86089844 7.8984375 20.04492188 C8.29546875 21.14513672 8.6925 22.24535156 9.1015625 23.37890625 C9.46588379 24.3851001 9.83020508 25.39129395 10.20556641 26.42797852 C11 29 11 29 11 32 C4.73 32 -1.54 32 -8 32 C-7.21625 29.31875 -6.4325 26.6375 -5.625 23.875 C-5.26075928 22.62565674 -5.26075928 22.62565674 -4.88916016 21.35107422 C-3.94283668 18.12402647 -2.97542178 14.92899624 -1.875 11.75 C-1.04824728 9.1516343 -0.62114807 6.83262881 -0.375 4.125 C-0.30023438 3.34382813 -0.22546875 2.56265625 -0.1484375 1.7578125 C-0.09945312 1.17773438 -0.05046875 0.59765625 0 0 Z " fill="#7B2130" transform="translate(83,83)"/>
<path d="M0 0 C8.58 0 17.16 0 26 0 C26 5.94 26 11.88 26 18 C24.35 18 22.7 18 21 18 C19.69921875 16.4609375 19.69921875 16.4609375 18.6875 14.375 C14.44462312 6.88367051 7.98217955 3.56570057 0 1 C0 0.67 0 0.34 0 0 Z " fill="#D82D4B" transform="translate(469,55)"/>
<path d="M0 0 C0.33 0 0.66 0 1 0 C1 7.26 1 14.52 1 22 C-4.94 22 -10.88 22 -17 22 C-12 17 -12 17 -9.0625 14.9375 C-4.41501708 11.21951366 -2.38294661 5.29825364 0 0 Z " fill="#D4304C" transform="translate(347,93)"/>
<path d="M0 0 C1.18613892 0.00785522 1.18613892 0.00785522 2.39624023 0.01586914 C3.67724609 0.02070312 3.67724609 0.02070312 4.98413086 0.02563477 C5.88196289 0.03401367 6.77979492 0.04239258 7.70483398 0.05102539 C8.6065332 0.05553711 9.50823242 0.06004883 10.43725586 0.06469727 C12.67234712 0.07652315 14.90730835 0.09300319 17.14233398 0.11352539 C16.48233398 1.43352539 15.82233398 2.75352539 15.14233398 4.11352539 C15.14233398 3.45352539 15.14233398 2.79352539 15.14233398 2.11352539 C9.86233398 2.11352539 4.58233398 2.11352539 -0.85766602 2.11352539 C-1.18766602 3.43352539 -1.51766602 4.75352539 -1.85766602 6.11352539 C-3.54780686 10.95859581 -3.54780686 10.95859581 -5.85766602 12.11352539 C-5.38260924 10.29994385 -4.90250559 8.4876836 -4.42016602 6.67602539 C-4.15333008 5.66668945 -3.88649414 4.65735352 -3.61157227 3.61743164 C-2.56967515 0.15703758 -2.56967515 0.15703758 0 0 Z " fill="#CD495F" transform="translate(96.857666015625,55.886474609375)"/>
<path d="M0 0 C0.33 0 0.66 0 1 0 C1 1.65 1 3.3 1 5 C0.34 5 -0.32 5 -1 5 C-1 6.98 -1 8.96 -1 11 C4.28 11 9.56 11 15 11 C15 11.66 15 12.32 15 13 C8.73 13 2.46 13 -4 13 C-1.125 1.125 -1.125 1.125 0 0 Z " fill="#D44B63" transform="translate(71,126)"/>
<path d="M0 0 C1.9374423 4.84360575 -0.37998399 9.21745397 -2 13.875 C-3 16 -3 16 -5 17 C-1.92482916 5.47835991 -1.92482916 5.47835991 0 0 Z " fill="#F4B0BB" transform="translate(110,66)"/>
<path d="M0 0 C7.26 0 14.52 0 22 0 C22 0.33 22 0.66 22 1 C19.06255476 1.16768291 16.12505096 1.33418858 13.1875 1.5 C12.35412109 1.54769531 11.52074219 1.59539062 10.66210938 1.64453125 C9.85966797 1.68964844 9.05722656 1.73476562 8.23046875 1.78125 C7.49207764 1.82314453 6.75368652 1.86503906 5.99291992 1.90820312 C4.33009506 1.98479533 2.6645879 2 1 2 C0.67 1.34 0.34 0.68 0 0 Z " fill="#2C1317" transform="translate(469,74)"/>
<path d="M0 0 C0.33 0 0.66 0 1 0 C1.31416607 5.23610116 0.77647622 8.51492303 -2 13 C-2.99 13.495 -2.99 13.495 -4 14 C-3.52188823 12.22888156 -3.0424722 10.45811517 -2.5625 8.6875 C-2.29566406 7.70136719 -2.02882813 6.71523437 -1.75390625 5.69921875 C-1.21920575 3.78482474 -0.62855462 1.88566385 0 0 Z " fill="#F4B4BD" transform="translate(93,116)"/>
<path d="M0 0 C-1.44077046 3.36179774 -3.24750021 5.59156268 -6 8 C-6.66 8 -7.32 8 -8 8 C-6.48291727 4.46014029 -4.24676932 0 0 0 Z " fill="#8E1D30" transform="translate(229,61)"/>
</svg>
